<svg version="1" xmlns="http://www.w3.org/2000/svg" width="1672" height="1672" viewBox="0 0 1254.000000 1254.000000"><path d="M615.5 1.9c-3.3 1-7.3 2.4-9 3.3-3 1.6-50.7 29-53.5 30.8-2.3 1.4-49.7 28.8-79.5 46-9.1 5.2-21.2 12.2-22.5 13-.8.5-12.7 7.4-26.5 15.3-13.7 7.9-41 23.6-60.5 34.9-19.5 11.3-46.3 26.7-59.5 34.3-13.2 7.5-26 15-28.5 16.5s-6.5 3.9-9 5.2c-2.5 1.4-12.7 7.3-22.8 13.1-10 5.9-19.9 11.6-22 12.7-2 1.1-4.4 2.5-5.2 3-1.5 1-18.4 10.8-69.5 40.2-14.8 8.6-28.6 16.5-30.5 17.6-1.9 1.2-7.3 4.2-12 6.8-14.2 7.9-23 18.6-25.9 31.5-.7 2.8-1 44.8-1.1 115.2V552l7 10.1c3.9 5.5 9.9 13.9 13.5 18.6l6.5 8.6V462.8c0-92 .3-127.4 1.1-129.9 1.4-4.2 6.7-11.4 9.4-12.8 1.1-.6 2.9-1.7 4-2.3 2.8-1.9 8.3-5.1 13.5-8 2.5-1.4 20.3-11.6 39.5-22.8 19.3-11.1 36.6-21.2 38.5-22.3 13.1-7.4 77.8-44.9 84-48.6 1.9-1.1 4.2-2.4 5-2.8.8-.4 4.7-2.6 8.5-4.8 3.9-2.3 9-5.3 11.5-6.7 6-3.4 44-25.3 103.5-59.8 27-15.5 50.6-29.2 52.5-30.3 1.9-1.1 7.6-4.3 12.5-7.2 5-2.9 10.6-6.2 12.5-7.3 1.9-1 8.6-4.9 14.9-8.6 6.2-3.7 13.7-8 16.5-9.5 2.8-1.6 14.5-8.3 25.9-15 11.5-6.7 21.1-12.1 21.5-12.1.3 0 1.3-.6 2.1-1.4.9-.7 4.1-2.7 7.1-4.4 3-1.7 11.1-6.2 18-10.1 6.9-3.9 13.8-7.2 15.5-7.3 7.3-.3 11.4.4 16.5 3 4.7 2.4 25.2 14.1 30 17.1.8.5 8 4.7 16 9.3 7.9 4.6 16.5 9.5 19 10.9 2.5 1.5 8 4.7 12.3 7.1l7.8 4.5 6.7-2.2c3.7-1.2 11.3-3.5 17-5 5.6-1.6 10.2-3.2 10.2-3.6 0-.4-10.9-7-24.2-14.7-13.4-7.7-35.8-20.6-49.8-28.7-14-8.1-27.1-15.7-29-16.8-15.9-9.2-26.8-11.3-39.5-7.8zM960.7 191.6c-.1.1-4.7.5-10.2.9-5.5.3-11.1.8-12.5 1-1.4.2-5.2.6-8.5 1s-6.1.8-6.3.9c-.1.2 5.9 3.9 13.5 8.2 7.6 4.3 14.6 8.3 15.5 8.9.9.5 4.1 2.3 7 3.9 2.9 1.5 6 3.4 6.9 4.2.8.8 1.8 1.4 2.1 1.4.4 0 11.4 6.2 24.5 13.8 32.2 18.7 63 36.5 67.3 38.9 4.5 2.5 14 8.1 16 9.3 1.7 1.1 21.7 12.6 28.3 16.4 19.4 10.9 34.6 20.1 36.8 22.2 1.4 1.4 3.7 4.6 5 7.2l2.4 4.7.1 292c.1 282.7.1 292.2-1.7 297-1 2.8-3.3 6.5-5.1 8.4-1.9 1.9-18.6 11.9-38.3 23.1l-35 19.7-2.6 11.4c-1.5 6.3-3.3 14.2-4.2 17.7-1.2 5.4-1.3 6.2 0 5.8.7-.3 22.8-13 49.1-28.2 51-29.5 54.4-31.8 59.7-42.3 5.4-10.7 5.1 5.9 5-313.1-.1-163.1-.5-298.1-.9-300-1.4-6.3-6.7-15.9-11.3-20.6-3.8-3.8-14.3-11.4-15.8-11.4-.2 0-6.8-3.8-14.7-8.4-7.9-4.6-27.6-16-43.8-25.3-16.2-9.4-49.7-28.7-74.5-43-40.1-23.1-45.5-25.9-49.3-25.9-2.4 0-4.4.1-4.5.2z"/><path d="M507.1 261.8c-6.1 3.3-8.9 12.3-5.8 18 .7 1.2 11.6 12.5 24.1 25.1l22.8 22.9-4.1 3.7c-2.3 2.1-5.4 5-6.9 6.4-4.6 4.3-12.6 14.2-17.5 21.8-12.2 18.6-19.7 43.5-19.7 65.5 0 4.9-.2 8.8-.4 8.8-.3 0-6.2-2.5-14.2-6.1-14.9-6.6-47.3-17.5-61.2-20.4-.9-.2-4.9-1-8.8-1.9-17.9-3.8-29.9-5.1-49.4-5.1-15.8 0-24.5.6-33.7 2.4-32.8 6.4-58.8 20.4-76.8 41.3-2.7 3.3-5.5 6.4-6 7.1-5.2 6-14.2 22.3-18.5 33.2-3.4 8.9-3.3 8.5-6 21-10.9 50.2 6.4 101.6 43.2 127.8 10.2 7.3 25.4 13.6 36.4 15.2 2.7.4 5.8.9 6.9 1.2 3 .5 21.3.4 27-.2 2.8-.3 6.8-.8 8.9-1 2.2-.2 5.8-.7 8.1-1.1 3.9-.5 4.5-.3 9.6 4.1 13.7 11.7 33.1 22.7 49.5 28 17.7 5.8 29.1 7.5 49.5 7.1l15.5-.2-2.2 8.7c-1.2 4.9-2.5 10.7-2.9 13.1-.3 2.4-.8 5.4-1.1 6.8-1.8 9.9-.6 44.2 2 57.5.3 1.6.8 4.3 1.1 6 5.8 30.8 26 76.9 48.6 110.2 4.9 7.4 14.1 20.5 15.5 22.2.7.9 5.2 6.5 10 12.6 22.2 28.1 55.3 60.3 69.1 67.5 6.4 3.3 9.7 2.3 21.3-6.4 14.6-11 40.5-37.1 57-57.5 1.9-2.4 4-4.8 4.5-5.5 12.2-13.8 36.1-50.7 47.3-73.1 8.8-17.6 20.7-48.5 22.6-58.5.2-1.4.9-4.5 1.5-7 .5-2.5 1.2-5.9 1.5-7.5.3-1.7.8-3.9 1-5 .2-1.2.7-4.8 1.1-8 .4-3.3.9-7.1 1.1-8.5.6-3.4.5-29.5-.1-34.7-.2-2.3-.7-5.7-1-7.5-.3-1.8-.8-4.7-1.1-6.3-.2-1.7-1.2-5.7-2-9-2.9-11.1-2.9-10.8.6-10 3.8.8 25.7.8 32 0 28-3.5 54-14.6 76.2-32.4l5.8-4.6 16.7-.1c9.3 0 19.1-.4 21.8-.8 6.8-.9 12.6-1.8 15-2.3 1.1-.2 3.1-.6 4.5-.9 4.9-1 20.1-6.4 25.2-9 13-6.5 25.6-16.8 35-28.4 8.1-10.1 19.1-35.4 21.3-49 .3-1.9 1-6.2 1.6-9.5 1.4-7.6 2-31.8.9-37.6-.4-2.4-1.1-6.2-1.4-8.4-.9-6.4-6.2-22.3-10.2-30.5-7.9-16.5-15.7-27.5-27.6-39.1-23.5-23.1-53.5-35-88.8-35.3-8 0-17.2.2-20.5.6-29.2 3.4-75.5 19.6-135.5 47.5-4.7 2.2-12.3 5.7-17 7.9-4.6 2.1-29.4 14.4-55 27.3-102.1 51.3-132 66.2-143.5 71.6-32.7 15.5-52.6 24.5-54.2 24.5-.7 0-1.3.4-1.3 1 0 .5-.6 1-1.3 1-.8 0-5.6 1.9-10.8 4.1-5.2 2.3-12.3 5.2-15.9 6.6-3.6 1.3-7.8 3.1-9.5 3.8-6.8 3.1-44.7 16-53.2 18-1 .3-6.3 1.6-11.8 3-5.5 1.4-11.5 2.8-13.4 3.1-1.8.3-4.3.7-5.4 1-1.2.2-3.9.6-6.2.9-2.2.4-5.3.9-7 1.1-6.7 1.2-24.7 1.1-31.2-.1-29-5.6-49.3-26.8-57.8-60.3-3.5-13.7-4-38.6-1-49.2.2-.8.6-2.7.9-4.2.3-1.6 1.4-5.6 2.6-9 15.5-45.5 57.5-72.3 111.6-71.2 14.1.3 38.1 3 43.6 4.9.7.2 2.4.7 3.8.9 4.5.9 6.4 1.4 19 5.1 23.5 6.8 41.2 13.9 70.1 27.9 6.8 3.2 13 5.6 14.9 5.6 5.1 0 9.9-2.8 12-7.1 2.4-4.6 2.4-6.6.5-13.9-3.1-11.7-3.8-30.4-1.5-41.3.6-3.1 1.1-5.9 1.1-6.2 0-.3 1.3-4.2 3-8.7 8.7-23.8 24.2-41.9 46.4-54.3 33.4-18.7 77.8-14.6 108.1 10.1 11 8.9 18.9 18.8 26.1 32.3 4.3 8.2 8.1 11.1 14.3 11.1 7.5 0 14.4-8.1 13.3-15.3-.9-6-11.5-24.2-19.2-33-4.3-5-16.5-16.7-17.3-16.7-.4 0-.8-.4-.8-.9s10.4-11.2 23-23.9c22.8-22.8 24.7-25.3 24.3-31 0-.6-.1-2.1-.2-3.1-.2-3.2-5-8-9.1-9.2-8.1-2.4-8.7-2-36.8 26l-25.8 25.9-5.9-2.5c-5.7-2.3-17.9-6-22.9-6.9-12.4-2.2-35.3-2.7-44.1-1-12.2 2.5-18.1 4.1-25.5 7.1l-8.5 3.4-25.5-25.4c-14-14-26.8-25.9-28.3-26.5-4.1-1.5-7.8-1.2-11.6.8zm421.8 167.7c33.4 8.9 59.5 33.9 70.5 67.6 5.3 16.2 6.1 28.6 3.1 50.9-1.3 9.8-6.2 24.9-11 33.5-11.2 20.1-31.3 33.7-56.5 38.1-1.4.3-3.6.8-5 1.1-1.4.3-12.6.7-25 .8-25.5.2-27.5.6-36 8.4-8.6 8-25.7 18-39 23-15.3 5.8-38.7 8.2-54.7 5.6-18.4-3-29.9-8-49.2-21.4-12.3-8.6-27.5 3.6-20.8 16.6 2.7 5.2 18.4 16.1 32 22.2 2.6 1.2 4.7 2.3 4.7 2.4 0 .1 1.5 4.5 3.4 9.7 5.6 15.9 5.9 14.3-3.7 17.8-14.6 5.3-40.6 12.1-55.2 14.6-24 4-35.9 5-60.5 5-16.6.1-36.2-.9-39.1-1.8-.8-.3-3.6-.7-6.4-.9-6.4-.7-22.1-3.4-30.5-5.4-3.6-.8-7.2-1.6-8-1.8-6.8-1.4-38.1-11.3-39.4-12.6-1.1-1 .6-8 4.4-17.9l3-7.5 6.7-3c7.5-3.2 22.4-12.8 26.5-17 5.7-5.7 5.6-14.4-.2-20-2.3-2.2-4.1-2.9-8.2-3.3-5-.4-5.6-.2-11.5 4.1-19.3 14.2-38.5 20.7-62.8 21.1-9 .2-24.7-2.1-33.5-4.8-10.2-3.2-32-13.7-32-15.4 0-.4 9.4-3.8 20.8-7.5 18.6-6.1 54.8-20 70.7-27.2 6.6-2.9 10.7-4.8 11.5-5 .3-.1 3-1.3 6-2.7 3-1.4 10.9-5 17.5-8.1 6.6-3 18.8-8.7 27-12.8 8.3-4 15.2-7.3 15.5-7.4.6-.1 35.5-17.6 111-55.6 31.1-15.7 62.6-31.3 70-34.8 7.4-3.5 17.1-8 21.5-10.1 49.9-23.5 96.5-39.4 122-41.6 3.9-.4 7.1-.7 7.2-.8.1-.1 5.4.2 11.9.6 7.1.5 15.4 1.8 21.3 3.3zM510 732.6c17.7 5.9 43.6 12.1 61 14.4 4.7.6 9.5 1.3 10.8 1.5 12 2 57.6 2.7 76.6 1.2 5.5-.5 10.2-1 10.5-1.1.3-.2 3.3-.6 6.6-1 10.9-1.1 33.9-5.7 46.2-9.2 4.8-1.4 9.5-2.6 10.3-2.8.8-.3 5.8-1.8 11.1-3.5s10-3.1 10.4-3.1c.7 0 0 25.4-.9 29.5-.2 1.1-.7 4.2-1 6.9-.8 5.8-3.1 16-4 17.4-.8 1.3-22.2 8.3-36.7 12.1-14.5 3.8-35.7 7.6-47.9 8.6-3 .3-7.3.8-9.5 1.1-6.3.9-39.9 1.1-51 .3-9.2-.6-17.3-1.5-23.5-2.4-10.5-1.6-23.2-3.8-26.5-4.7-2.2-.5-4.7-1.2-5.7-1.3-5.2-1-21.8-5.8-31.8-9.2l-11.5-3.9-1.2-5.5c-3.2-14.2-6.2-46.6-4.5-48.4.8-.8 1-.7 12.2 3.1zm9.7 82.8c9.2 3.2 37.5 9.6 49.8 11.2 2.8.3 5.2.7 5.5.9.3.2 4.1.6 8.5 1s8.9 1 10 1.2c3.6.9 54.8 1.1 61.5.3 3.6-.4 11-1.3 16.5-2 5.5-.6 15.9-2.3 23-3.6 16.7-3.2 14.9-2.8 29.9-6.9 7-1.9 13-3.5 13.2-3.5.6 0-9.1 21.2-13.1 28.5-6.5 12.1-12.5 22.3-13.8 23.3-3.2 2.7-32.6 10.9-45.5 12.8-2 .3-4.2.7-4.9.9-7.7 2.6-52.6 2.6-67.3.1-1.4-.3-4.3-.7-6.5-1-6.8-.9-14.2-2.7-30-7-.5-.1-4.3-1.3-8.3-2.6l-7.4-2.5-6.2-10.5c-7.3-12.3-20.6-39.2-20.6-41.6 0-.7 1.7-.4 5.7 1zM573 902c6.9 1.5 15.8 2.8 23.5 3.6 3.9.3 8.4.8 10 1 4 .6 35.3.5 38.5 0 1.4-.3 5.4-.7 9-1 9.3-.8 14.3-1.6 24-3.6 4.7-1 8.6-1.7 8.7-1.6.3.3-14 17.8-20 24.6-6.8 7.6-19.1 20.3-24.8 25.5-12.8 11.8-13.2 12-18 11.6-4.5-.3-34.2-30.4-53.7-54.3-6.7-8.3-6.9-8 2.8-5.8zM78 860.2c0 68.8.1 69.6 5.6 79.8 4.4 8 10.4 13.5 22.4 20.2 2.5 1.4 8.6 4.9 13.5 7.8 5 2.9 11 6.4 13.5 7.7 2.5 1.4 5 2.9 5.5 3.3.6.4 3 1.9 5.5 3.2 5 2.8 24.2 13.9 81.5 47 43.3 25 77.2 44.5 82.5 47.5 7 4 73.7 42.6 79 45.8 3 1.8 7.5 4.4 10 5.7 2.5 1.4 9.9 5.7 16.5 9.5 14.2 8.3 50.4 29.1 55.8 32.2 2.1 1.2 4.8 2.7 6 3.5 5.2 3.2 22.2 13 22.7 13.1.3 0 1.6.8 3 1.7 2.3 1.4 10.9 6.5 18.5 10.8 1.7.9 21.7 12.5 44.5 25.6 22.8 13.2 43.2 24.8 45.2 25.7 8.5 4 22.3 4.6 31.5 1.4 4.2-1.4 16.8-8.4 44.1-24.3 7.9-4.6 14.6-8.4 14.9-8.4.4 0 1.4-.6 2.2-1.4.9-.8 3.9-2.6 6.6-4.1 2.8-1.4 6.6-3.6 8.5-4.7 1.9-1.1 13.6-7.9 26-15 12.4-7.2 29.7-17.2 38.5-22.3 15.2-8.8 18-10.4 28.5-16.3 2.5-1.4 7.3-4.3 10.8-6.4 3.4-2.1 6.4-3.8 6.7-3.8.3 0 3.3-1.7 6.7-3.8 3.5-2 7.6-4.4 9.2-5.2 2.8-1.4 5.8-7 15.6-28.5 1.6-3.6 6-14.4 6-14.9 0-.2-3.9 1.8-8.7 4.6-4.9 2.8-17.6 10.1-28.3 16.3-10.7 6.2-27.8 16.1-38 22-10.2 5.9-28.8 16.7-41.5 24-12.6 7.3-27.3 15.7-32.5 18.7-21 12.2-55.8 32.2-60 34.6-2.5 1.4-7.7 4.4-11.7 6.8-11.9 7.2-19.1 8-28.9 3.2-2.7-1.3-26.9-15.1-53.9-30.7-26.9-15.6-50.3-29.1-52-30.1-9.6-5.5-30.4-17.6-33-19.1-1.6-1-4.6-2.6-6.5-3.7-1.9-1.1-13.4-7.7-25.5-14.7-12.1-7-24-13.9-26.5-15.3-2.5-1.4-18.4-10.6-35.5-20.5-32.3-18.7-35.1-20.3-41.2-23.8-2.1-1.2-7.8-4.5-12.8-7.4-4.9-2.9-10.8-6.3-13-7.5-4.7-2.6-52.7-30.4-88-50.8-28.4-16.5-35.4-20.5-37.5-21.5-.8-.4-2.4-1.3-3.5-2s-10.1-5.9-20-11.6c-9.9-5.8-23.4-13.6-30-17.4-6.6-3.8-13.6-7.9-15.5-8.9-6.4-3.6-9.9-6.8-12.7-11.6l-2.8-4.7-.5-50.7-.5-50.6-6-5.2c-3.3-2.9-8.5-7.6-11.5-10.4-3-2.8-6.3-5.7-7.2-6.5-1.7-1.3-1.8 1.8-1.8 62.1z"/></svg>